<svg xmlns="http://www.w3.org/2000/svg" version="1.1" xmlns:xlink="http://www.w3.org/1999/xlink" xmlns:svgjs="http://svgjs.dev/svgjs" width="100%" height="100%" viewBox="0 0 1000 600"><rect width="1000" height="600" x="0" y="0" fill="#000000"/><g><rect width="333.3333333333333" height="333.3333333333333" rx="13.333333333333334" ry="13.333333333333334" y="226.5896833615579" fill="#000000" transform="matrix(0.6116432862090581,0,0,0.6116432862090581,-2.3471318600247106,59.467376080108)" x="214.2486114501953"/><path d="M285.24894085539677 438.8274917881709L260.3591620573765 438.8274917881709L208.2048550349548 389.0479341921304L260.3591620573765 339.4787974313388L285.24894085539677 339.4787974313388L232.8842129977261 389.0479341921304L285.24894085539677 438.8274917881709ZM428.0946278701218 468.25634860370457L415.9803997836458 434.7092554411555L350.1787985893627 434.7092554411555L338.0645705028867 468.25634860370457L317.29302805188183 468.25634860370457L371.8220845006847 318.25635319051474L394.54753470757277 318.25635319051474L448.8661703211267 468.25634860370457L428.0946278701218 468.25634860370457ZM355.8000409024421 418.687211842913L410.3591574705663 418.687211842913L383.0645691268436 342.51486948278813L355.8000409024421 418.687211842913ZM528.735907357769 389.0479341921304L476.3711795000984 339.4787974313388L501.2609582981187 339.4787974313388L553.6256861557893 389.0479341921304L501.2609582981187 438.8274917881709L476.3711795000984 438.8274917881709L528.735907357769 389.0479341921304Z " fill="#FFFFFFDE" transform="matrix(0.6116432862090581,0,0,0.6116432862090581,-2.3471318600247106,59.467376080108)"/><path d="M730.2505237654757 466.5046453249222L719.3899416300608 436.42918710377324L660.3978466066782 436.42918710377324L649.5372644712633 466.5046453249222L630.9152737626487 466.5046453249222L679.8013680396775 332.02746206010744L700.1750655443268 332.02746206010744L748.8725144740904 466.5046453249222L730.2505237654757 466.5046453249222ZM665.4373723121932 422.0651913762891L714.3504159245458 422.0651913762891L689.8804194507077 353.77557566626086L665.4373723121932 422.0651913762891ZM770.2163880503897 322.9185867207272L787.8682026873544 322.9185867207272L787.8682026873544 466.5046453249222L770.2163880503897 466.5046453249222L770.2163880503897 322.9185867207272ZM861.2242934382211 360.16256813795644L861.2242934382211 374.71520921270593L838.910243790272 374.71520921270593L838.910243790272 466.5046453249222L821.2584291533074 466.5046453249222L821.2584291533074 374.71520921270593L807.4873188029426 374.71520921270593L807.4873188029426 360.16256813795644L821.2584291533074 360.16256813795644L821.2584291533074 352.6167542473456Q821.2584291533074 334.74934492779204 830.4751018339821 326.50284831876735Q839.6917745146566 318.25635170974266 860.0654720193058 318.25635170974266L860.0654720193058 318.25635170974266L860.0654720193058 332.9976381317574Q848.4233591595064 332.9976381317574 843.6533268072274 337.5790251367711Q838.910243790272 342.1334628064613 838.910243790272 352.6167542473456L838.910243790272 352.6167542473456L838.910243790272 360.16256813795644L861.2242934382211 360.16256813795644ZM875.1840491358512 412.9563160369088Q875.1840491358512 396.6519681661246 881.7866362901357 384.33612192323477Q888.3892234444202 372.0202756803449 899.9235389629255 365.22904317879517Q911.484803816754 358.4378106772454 925.6332048616496 358.4378106772454L925.6332048616496 358.4378106772454Q939.6199098946031 358.4378106772454 949.8876066528987 364.4475124544105Q960.1822527465176 370.45721423157556 965.2217784520328 379.5660895709558L965.2217784520328 379.5660895709558L965.2217784520328 360.16256813795644L983.0891877715865 360.16256813795644L983.0891877715865 466.5046453249222L965.2217784520328 466.5046453249222L965.2217784520328 446.7238331973923Q959.9936073992524 456.02135388403786 949.6181132996626 462.13885300249734Q939.2156698647491 468.2563521209569 925.4445595143843 468.2563521209569L925.4445595143843 468.2563521209569Q911.296158469489 468.2563521209569 899.8426909569546 461.2764742721418Q888.3892234444202 454.2696470880032 881.7866362901357 441.65735815655364Q875.1840491358512 429.0450692251041 875.1840491358512 412.9563160369088L875.1840491358512 412.9563160369088ZM965.2217784520328 413.14496138417405Q965.2217784520328 401.1255578298439 960.3708980937829 392.17837850240534Q955.5200177355332 383.25814851029037 947.2735211265085 378.515065493335Q939.0270245174836 373.745033141056 929.1366184537187 373.745033141056L929.1366184537187 373.745033141056Q919.2462123899538 373.745033141056 911.0805637869 378.40726815204056Q902.9418645191697 383.0695031630251 898.0909841609198 391.9897331551401Q893.2401038026701 400.90996314725504 893.2401038026701 412.9563160369088L893.2401038026701 412.9563160369088Q893.2401038026701 425.1643649385042 898.0909841609198 434.1923922719136Q902.9418645191697 443.220419605323 911.0805637869 447.96350262227844Q919.2462123899538 452.7335349745574 929.1366184537187 452.7335349745574L929.1366184537187 452.7335349745574Q939.0270245174836 452.7335349745574 947.2735211265085 447.96350262227844Q955.5200177355332 443.220419605323 960.3708980937829 434.1923922719136Q965.2217784520328 425.1643649385042 965.2217784520328 413.14496138417405L965.2217784520328 413.14496138417405ZM1006.3734134911856 412.9563160369088Q1006.3734134911856 396.6519681661246 1012.9490513101464 384.33612192323477Q1019.5516384644309 372.0202756803449 1031.1129033182597 365.22904317879517Q1042.647218836765 358.4378106772454 1056.8225692169838 358.4378106772454L1056.8225692169838 358.4378106772454Q1070.7823249146138 358.4378106772454 1081.076971008233 364.4475124544105Q1091.3446677665283 370.45721423157556 1096.3841934720435 379.5660895709558L1096.3841934720435 379.5660895709558L1096.3841934720435 360.16256813795644L1114.2516027915972 360.16256813795644L1114.2516027915972 466.5046453249222L1096.3841934720435 466.5046453249222L1096.3841934720435 446.7238331973923Q1091.156022419263 456.02135388403786 1080.7805283196733 462.13885300249734Q1070.4050342200833 468.2563521209569 1056.606974534395 468.2563521209569L1056.606974534395 468.2563521209569Q1042.4585734894995 468.2563521209569 1031.0051059769653 461.2764742721418Q1019.5516384644309 454.2696470880032 1012.9490513101464 441.65735815655364Q1006.3734134911856 429.0450692251041 1006.3734134911856 412.9563160369088L1006.3734134911856 412.9563160369088ZM1096.3841934720435 413.14496138417405Q1096.3841934720435 401.1255578298439 1091.5333131137936 392.17837850240534Q1086.682432755544 383.25814851029037 1078.4359361465192 378.515065493335Q1070.1894395374945 373.745033141056 1060.2990334737297 373.745033141056L1060.2990334737297 373.745033141056Q1050.4086274099645 373.745033141056 1042.2699281422342 378.40726815204056Q1034.1042795391804 383.0695031630251 1029.2533991809305 391.9897331551401Q1024.4025188226808 400.90996314725504 1024.4025188226808 412.9563160369088L1024.4025188226808 412.9563160369088Q1024.4025188226808 425.1643649385042 1029.2533991809305 434.1923922719136Q1034.1042795391804 443.220419605323 1042.2699281422342 447.96350262227844Q1050.4086274099645 452.7335349745574 1060.2990334737297 452.7335349745574L1060.2990334737297 452.7335349745574Q1070.1894395374945 452.7335349745574 1078.4359361465192 447.96350262227844Q1086.682432755544 443.220419605323 1091.5333131137936 434.1923922719136Q1096.3841934720435 425.1643649385042 1096.3841934720435 413.14496138417405L1096.3841934720435 413.14496138417405ZM1187.392098859875 360.16256813795644L1187.392098859875 374.71520921270593L1165.0780492119259 374.71520921270593L1165.0780492119259 466.5046453249222L1147.4262345749612 466.5046453249222L1147.4262345749612 374.71520921270593L1133.6551242245964 374.71520921270593L1133.6551242245964 360.16256813795644L1147.4262345749612 360.16256813795644L1147.4262345749612 352.6167542473456Q1147.4262345749612 334.74934492779204 1156.642907255636 326.50284831876735Q1165.8595799363104 318.25635170974266 1186.23327744096 318.25635170974266L1186.23327744096 318.25635170974266L1186.23327744096 332.9976381317574Q1174.5911645811602 332.9976381317574 1169.848081564205 337.5790251367711Q1165.0780492119259 342.1334628064613 1165.0780492119259 352.6167542473456L1165.0780492119259 352.6167542473456L1165.0780492119259 360.16256813795644L1187.392098859875 360.16256813795644ZM1201.3788038928287 412.9563160369088Q1201.3788038928287 396.6519681661246 1207.9544417117895 384.33612192323477Q1214.557028866074 372.0202756803449 1226.118293719903 365.22904317879517Q1237.652609238408 358.4378106772454 1251.8279596186271 358.4378106772454L1251.8279596186271 358.4378106772454Q1265.7877153162572 358.4378106772454 1276.0823614098763 364.4475124544105Q1286.3500581681717 370.45721423157556 1291.3895838736867 379.5660895709558L1291.3895838736867 379.5660895709558L1291.3895838736867 360.16256813795644L1309.2569931932403 360.16256813795644L1309.2569931932403 466.5046453249222L1291.3895838736867 466.5046453249222L1291.3895838736867 446.7238331973923Q1286.1614128209064 456.02135388403786 1275.7859187213164 462.13885300249734Q1265.4104246217266 468.2563521209569 1251.6123649360381 468.2563521209569L1251.6123649360381 468.2563521209569Q1237.4639638911428 468.2563521209569 1226.0104963786084 461.2764742721418Q1214.557028866074 454.2696470880032 1207.9544417117895 441.65735815655364Q1201.3788038928287 429.0450692251041 1201.3788038928287 412.9563160369088L1201.3788038928287 412.9563160369088ZM1291.3895838736867 413.14496138417405Q1291.3895838736867 401.1255578298439 1286.5387035154367 392.17837850240534Q1281.6878231571873 383.25814851029037 1273.4413265481626 378.515065493335Q1265.194829939138 373.745033141056 1255.3044238753728 373.745033141056L1255.3044238753728 373.745033141056Q1245.414017811608 373.745033141056 1237.2753185438776 378.40726815204056Q1229.1096699408236 383.0695031630251 1224.2587895825739 391.9897331551401Q1219.407909224324 400.90996314725504 1219.407909224324 412.9563160369088L1219.407909224324 412.9563160369088Q1219.407909224324 425.1643649385042 1224.2587895825739 434.1923922719136Q1229.1096699408236 443.220419605323 1237.2753185438776 447.96350262227844Q1245.414017811608 452.7335349745574 1255.3044238753728 452.7335349745574L1255.3044238753728 452.7335349745574Q1265.194829939138 452.7335349745574 1273.4413265481626 447.96350262227844Q1281.6878231571873 443.220419605323 1286.5387035154367 434.1923922719136Q1291.3895838736867 425.1643649385042 1291.3895838736867 413.14496138417405L1291.3895838736867 413.14496138417405ZM1390.9404285591027 358.22221599465655Q1410.3439499921021 358.22221599465655 1422.3633535464323 369.97212619575055Q1434.4097064360858 381.7220363968446 1434.4097064360858 403.82049136220496L1434.4097064360858 403.82049136220496L1434.4097064360858 466.5046453249222L1416.9465371463866 466.5046453249222L1416.9465371463866 406.3537288826243Q1416.9465371463866 390.4536210416943 1408.9964832259216 381.9915297500807Q1401.019479970133 373.5563877937907 1387.2483696197683 373.5563877937907L1387.2483696197683 373.5563877937907Q1373.2886139221382 373.5563877937907 1365.0421173131135 382.2879724386404Q1356.7956207040888 391.0195570834901 1356.7956207040888 407.7011956488048L1356.7956207040888 407.7011956488048L1356.7956207040888 466.5046453249222L1339.143806067124 466.5046453249222L1339.143806067124 360.16256813795644L1356.7956207040888 360.16256813795644L1356.7956207040888 375.3080945898254Q1362.023791756869 367.1693953220951 1371.0518190902785 362.69580565837583Q1380.0798464236877 358.22221599465655 1390.9404285591027 358.22221599465655L1390.9404285591027 358.22221599465655Z " fill="#FFFFFFDE" transform="matrix(0.6116432862090581,0,0,0.6116432862090581,-2.3471318600247106,59.467376080108)"/></g></svg>