<svg xmlns="http://www.w3.org/2000/svg" width="2501" height="725" stroke="#000" stroke-linecap="round" stroke-linejoin="round" fill="#fff" fill-rule="evenodd"><path d="M16.2695 564.5947V286.3672h347.3828v-16.2744H16.2695V16.2695h369.3457V0H0v580.8643h388.8672v-16.2696H16.2744zM702.085 162.7051L558.0909 352.2608 417.3438 162.71h-21.1524l152.1338 201.7578L381.543 580.8594h19.5264l157.0117-204.1992 157.8271 204.1992h20.337L568.6572 364.458l152.9444-201.7578h-19.5215zm82.9786 561.3428V463.7207h1.6259c9.7656 37.9639 29.0186 68.4717 57.7637 91.5234s65.3515 34.5753 109.8242 34.5753c28.7451 0 54.2383-5.8301 76.4747-17.4903s40.8104-27.5244 55.7275-47.5927 26.3036-43.3887 34.1699-69.9658 11.7969-54.5069 11.7969-83.7891c0-31.46-4.0723-60.4785-12.2071-87.0508s-19.9316-49.6289-35.3858-69.1504-34.1699-34.7168-56.1376-45.5566c-21.9629-10.8497-46.7774-16.2745-74.4385-16.2745-21.1523 0-40.8105 3.1201-58.9795 9.3555s-34.3017 15.0488-48.4033 26.4404c-14.1841 11.4792-26.5305 25.0588-36.6114 40.2686-10.3027 15.459-18.1689 32.4072-23.5937 50.8496h-1.6259V162.7051H768.794v561.3428h16.2696zm169.2138-149.6924c-50.9766 0-91.9287-17.4902-122.8418-52.4707s-46.372-85.2881-46.372-150.9131c0-27.1192 3.7988-52.8809 11.3915-77.2852s18.5742-45.83 32.9443-64.2675 32.1387-33.086 53.2862-43.9307 45.0196-16.2744 71.5918-16.2744c27.1192 0 50.8496 5.4248 71.1865 16.2744s37.1533 25.625 50.4395 44.3359 23.3203 40.1368 30.1025 64.2676 10.166 49.7607 10.166 76.8799c0 24.4092-3.1152 48.6816-9.3554 72.8125s-15.8643 45.8301-28.8819 65.0879c-13.0127 19.248-29.6875 34.9756-50.0293 47.1826s-44.8828 18.3008-73.6279 18.3008zm267.6563 6.5088V344.126c0-22.7783 3.2519-45.0195 9.7656-66.709 6.5039-21.6943 16.5381-40.8154 30.0976-57.3535s30.7764-29.5606 51.6602-39.0527 45.6934-13.4229 74.4385-11.7969v-16.2696c-24.9511-.5371-46.7773 2.168-65.4882 8.1348-18.7159 5.9668-34.8488 14.1016-48.4083 24.4092s-24.4043 22.3682-32.539 36.2012c-8.1287 13.811-14.1614 28.7526-17.9004 44.3359h-1.626V162.7051h-16.2696v418.1641h16.2696zm186.2988-205.8252h349.8194c1.0888-28.7451-1.7579-56.4014-8.5401-82.9785s-17.6269-50.1709-32.5391-70.7764-34.1698-37.1533-57.7636-49.6289-51.6601-18.711-84.1992-18.711c-23.3252 0-46.1036 4.8829-68.3398 14.6485s-41.7628 23.9941-58.5743 42.7051-30.3711 41.626-40.6739 68.75c-10.3027 27.1142-15.4589 58.0273-15.4589 92.7392 0 30.9131 3.5253 59.795 10.5761 86.6407s17.8956 50.1709 32.5391 69.9658 33.4961 35.1171 56.543 45.9619 50.8447 16.001 83.3887 15.459c47.7246 0 87.8613-13.4278 120.4003-40.2686 32.5441-26.8506 51.797-64.6777 57.7637-113.4912h-16.2696c-7.0508 46.1035-25.0879 80.6788-54.1014 103.7256-29.0186 23.0518-65.4883 34.5752-109.4239 34.5752-29.8292 0-55.0488-5.1514-75.6592-15.4541s-37.4219-24.4092-50.4394-42.3047-22.6417-38.916-28.8769-63.0517c-6.2404-24.1309-9.629-50.3028-10.171-78.5059zm333.5499-16.2696h-333.545c1.6212-29.2871 7.0459-55.5908 16.2647-78.9111s21.289-43.2568 36.2061-59.7949c14.912-16.543 32.2704-29.1504 52.0654-37.832s41.0839-13.0176 63.8622-13.0176c27.1192 0 50.9766 5.0195 71.5919 15.0537 20.6055 10.0342 37.827 23.7305 51.66 41.084s24.2676 37.5586 31.3184 60.6054 10.5763 47.3243 10.5763 72.8125zm353.8916-72.4023h16.2695c0-46.6455-13.5596-80.542-40.6738-101.6943-27.1241-21.1524-64.0039-31.7286-110.6445-31.7286-26.0352 0-47.9981 3.2569-65.8985 9.7657s-32.539 14.9121-43.9307 25.2148-19.5214 21.6944-24.4042 34.1699-7.3243 24.4092-7.3243 35.796c0 22.7783 4.0673 40.9472 12.2071 54.5068 8.1347 13.5595 20.8789 24.1357 38.2324 31.7285 11.9335 5.4199 25.4882 10.3027 40.6786 14.6484 15.1857 4.336 32.8126 8.9453 52.881 13.8233l52.8808 13.0176c17.3535 4.3408 32.6758 10.1708 45.9619 17.4902 13.2911 7.3242 24.1357 16.6797 32.5439 28.0713s12.6075 26.3037 12.6075 44.7412c0 17.9004-4.1993 33.086-12.6075 45.5566-8.3366 12.4106-19.3086 22.8291-32.1337 30.5127-13.0177 7.8613-27.5293 13.5547-43.5254 17.0801-16.0011 3.5254-31.5918 5.2881-46.7774 5.2881-49.3556 0-87.1875-10.9814-113.4912-32.9443s-39.4531-56.543-39.4531-103.7305h-16.2744c0 52.6123 14.2382 91.1182 42.7099 115.5273s70.6446 36.6065 126.5088 36.6065c17.8955 0 35.9277-2.0361 54.1016-6.1035 18.164-4.0674 34.4385-10.7081 48.8086-19.9317 14.2482-9.0928 26.2162-21.3383 34.9805-35.791 8.95-14.6484 13.4277-32.5439 13.4277-53.6963 0-20.0683-3.9355-36.3379-11.797-48.8135s-18.1689-22.7783-30.9179-30.913c-12.744-8.1348-27.1142-14.5069-43.1151-19.1163l-48.4083-13.4277-59.7949-15.4541c-17.0802-4.3408-32.9444-9.4922-47.5879-15.459-14.1016-5.9668-25.3565-14.5068-33.7647-25.625s-12.6074-26.9824-12.6074-47.5927c0-3.794 1.084-10.5762 3.252-20.337s7.3242-19.6631 15.4589-29.6972 20.6055-18.9795 37.4219-26.8457 39.8633-11.7969 69.1505-11.7969c20.0682 0 38.3691 2.1728 54.912 6.5088s30.7813 11.2548 42.7099 20.747c11.9337 9.4922 21.1524 21.5577 27.6612 36.2012 6.5089 14.6485 9.7657 32.544 9.7657 53.6963zm376.6649 0h16.2696c0-46.6455-13.5547-80.542-40.6737-101.6943s-63.999-31.7286-110.6446-31.7286c-26.0303 0-47.9982 3.2569-65.8935 9.7657-17.9005 6.5039-32.544 14.9121-43.9308 25.2148s-19.5263 21.6944-24.4091 34.1699-7.3193 24.4092-7.3193 35.796c0 22.7783 4.0672 40.9472 12.207 54.5068 8.1298 13.5595 20.8789 24.1357 38.2324 31.7285 11.9336 5.4199 25.4883 10.3027 40.6738 14.6484 15.1856 4.336 32.8125 8.9453 52.8809 13.8233l52.8808 13.0176c17.3585 4.3408 32.6758 10.1708 45.9668 17.4902s24.1359 16.6797 32.539 28.0713c8.4084 11.3867 12.6124 26.3037 12.6124 44.7412 0 17.9004-4.204 33.086-12.6124 45.5566-8.3352 12.41-19.3053 22.8285-32.1287 30.5127-13.0226 7.8613-27.5294 13.5547-43.5304 17.0801s-31.5918 5.2881-46.7773 5.2881c-49.3554 0-87.1827-10.9814-113.4864-32.9443s-39.4579-56.543-39.4579-103.7305h-16.2695c0 52.6123 14.2333 91.1182 42.7098 115.5273s70.6397 36.6065 126.504 36.6065c17.9005 0 35.9326-2.0361 54.1015-6.1035s34.4385-10.7081 48.8136-19.9317c14.2482-9.0928 26.2162-21.3383 34.9805-35.791 8.9502-14.6484 13.4227-32.5439 13.4227-53.6963 0-20.0683-3.9305-36.3379-11.7969-48.8135-7.8613-12.4707-18.1639-22.7783-30.913-30.913-12.7441-8.1348-27.1191-14.5069-43.1152-19.1163l-48.4083-13.4277-59.7949-15.4541c-17.085-4.3408-32.9491-9.4922-47.5928-15.459-14.1016-5.9668-25.3564-14.5068-33.7598-25.625s-12.6122-26.9824-12.6122-47.5927c0-3.794 1.0839-10.5762 3.2569-20.337 2.1679-9.7656 7.3242-19.6631 15.4541-29.6972s20.6102-18.9795 37.4218-26.8457 39.8631-11.7969 69.1552-11.7969c20.0684 0 38.3693 2.1728 54.9123 6.5088s30.7762 11.2548 42.7097 20.747 21.1525 21.5577 27.6612 36.2012c6.5088 14.6485 9.7657 32.544 9.7657 53.6963z" stroke="none" fill-rule="nonzero"/></svg>